<?xml version="1.0" encoding="UTF-8" standalone="no"?><!DOCTYPE svg PUBLIC "-//W3C//DTD SVG 1.1//EN" "http://www.w3.org/Graphics/SVG/1.1/DTD/svg11.dtd"><svg width="100%" height="100%" viewBox="0 0 134 134" version="1.1" xmlns="http://www.w3.org/2000/svg" xmlns:xlink="http://www.w3.org/1999/xlink" xml:space="preserve" xmlns:serif="http://www.serif.com/" style="fill-rule:evenodd;clip-rule:evenodd;stroke-linejoin:round;stroke-miterlimit:2;"><path d="M32.361,105.556l4.861,5c1.019,1.018 1.552,2.292 1.6,3.822c0.048,1.529 -0.485,2.848 -1.6,3.955c-1.018,1.019 -2.315,1.528 -3.889,1.528c-1.574,0 -2.87,-0.509 -3.889,-1.528l-14.444,-14.444c-0.556,-0.556 -0.95,-1.158 -1.183,-1.806c-0.234,-0.648 -0.347,-1.342 -0.339,-2.083c0.007,-0.741 0.124,-1.435 0.35,-2.083c0.226,-0.648 0.618,-1.25 1.178,-1.806l14.444,-14.444c1.019,-1.019 2.293,-1.528 3.822,-1.528c1.53,-0 2.848,0.509 3.956,1.528c1.111,1.111 1.666,2.431 1.666,3.961c0,1.529 -0.555,2.848 -1.666,3.955l-4.867,4.861l68.611,0l-4.861,-5c-1.018,-1.018 -1.552,-2.29 -1.6,-3.816c-0.048,-1.526 0.485,-2.847 1.6,-3.961c1.019,-1.019 2.315,-1.528 3.889,-1.528c1.574,-0 2.87,0.509 3.889,1.528l14.444,14.444c0.556,0.556 0.95,1.158 1.184,1.806c0.233,0.648 0.348,1.342 0.344,2.083c-0.004,0.741 -0.118,1.435 -0.344,2.083c-0.226,0.648 -0.621,1.25 -1.184,1.806l-14.444,14.444c-1.019,1.019 -2.291,1.528 -3.817,1.528c-1.526,0 -2.846,-0.509 -3.961,-1.528c-1.111,-1.111 -1.667,-2.429 -1.667,-3.955c0,-1.526 0.556,-2.847 1.667,-3.961l4.861,-4.861l-68.611,-0Zm28.75,-38.889l0,-55.556c0,-1.574 0.533,-2.892 1.6,-3.955c1.067,-1.063 2.385,-1.597 3.956,-1.6c1.57,-0.004 2.89,0.529 3.961,1.6c1.07,1.07 1.602,2.388 1.594,3.955l0,55.556c0,1.574 -0.533,2.894 -1.6,3.961c-1.066,1.066 -2.385,1.598 -3.955,1.594c-1.571,-0.003 -2.889,-0.537 -3.956,-1.6c-1.067,-1.063 -1.6,-2.381 -1.6,-3.955m-22.222,-11.111l-0,-33.334c-0,-1.574 0.533,-2.892 1.6,-3.955c1.067,-1.063 2.385,-1.597 3.955,-1.6c1.571,-0.004 2.891,0.529 3.962,1.6c1.07,1.07 1.601,2.389 1.594,3.955l0,33.334c0,1.574 -0.533,2.894 -1.6,3.961c-1.067,1.066 -2.385,1.598 -3.956,1.594c-1.57,-0.004 -2.888,-0.537 -3.955,-1.6c-1.067,-1.063 -1.6,-2.381 -1.6,-3.955m44.444,-0l0,-33.334c0,-1.574 0.534,-2.892 1.6,-3.955c1.067,-1.063 2.386,-1.597 3.956,-1.6c1.57,-0.004 2.891,0.529 3.961,1.6c1.07,1.07 1.602,2.389 1.594,3.955l0,33.334c0,1.574 -0.533,2.894 -1.6,3.961c-1.066,1.066 -2.385,1.598 -3.955,1.594c-1.57,-0.004 -2.889,-0.537 -3.956,-1.6c-1.066,-1.063 -1.6,-2.381 -1.6,-3.955m-66.666,-13.889l-0,-5.556c-0,-1.574 0.533,-2.892 1.6,-3.955c1.066,-1.063 2.385,-1.597 3.955,-1.6c1.571,-0.004 2.891,0.529 3.961,1.6c1.071,1.07 1.602,2.388 1.595,3.955l-0,5.556c-0,1.574 -0.534,2.894 -1.6,3.961c-1.067,1.066 -2.385,1.598 -3.956,1.594c-1.57,-0.003 -2.889,-0.537 -3.955,-1.6c-1.067,-1.063 -1.6,-2.381 -1.6,-3.955m88.889,-0l-0,-5.556c-0,-1.574 0.533,-2.892 1.6,-3.955c1.066,-1.063 2.385,-1.597 3.955,-1.6c1.57,-0.004 2.891,0.529 3.961,1.6c1.071,1.07 1.602,2.388 1.595,3.955l-0,5.556c-0,1.574 -0.534,2.894 -1.6,3.961c-1.067,1.066 -2.386,1.598 -3.956,1.594c-1.57,-0.003 -2.889,-0.537 -3.955,-1.6c-1.067,-1.063 -1.6,-2.381 -1.6,-3.955" style="fill:#34d399;fill-rule:nonzero;"/></svg>